<mxfile host="app.diagrams.net" modified="2024-06-13T11:54:44.369Z" agent="Mozilla/5.0 (Windows NT 10.0; Win64; x64) AppleWebKit/537.36 (KHTML, like Gecko) Chrome/110.0.0.0 Safari/537.36" version="24.5.4" etag="EJbPqmnFLq_5vgmEGQFZ" type="github">
  <diagram name="第 1 页" id="DQ0z-95RPmT4CnxGzOuh">
    <mxGraphModel>
      <root>
        <mxCell id="0" />
        <mxCell id="1" parent="0" />
      </root>
    </mxGraphModel>
  </diagram>
</mxfile>
